<?xml version="1.0" encoding="UTF-8"?>
<!--
  Trim Galore hero logo, 16:9. Bricolage Grotesque text baked to <path> via
  fontTools so the file is font-independent. Italic on "Galore." is a 14°
  skewX, matching the live page's synthesized italic and the brand slash.
-->
<svg xmlns="http://www.w3.org/2000/svg" viewBox="0 0 1280 720"
     role="img" aria-label="Trim Galore">
  <title>Trim Galore</title>
  <defs>
    <clipPath id="frame">
      <rect width="1280" height="720"/>
    </clipPath>
  <g id="title">
    <path d="M52.08 0V-132.72H5.04V-158.4H129.84V-132.72H82.56V0ZM139.92 0V-125.52H165.36L164.88 -82.32H169.2Q171.36 -97.68 175.92 -107.88Q180.48 -118.08 188.64 -123.24Q196.8 -128.4 208.8 -128.4Q211.2 -128.4 213.96 -128.16Q216.72 -127.92 220.08 -126.96L218.88 -95.04Q215.04 -96.48 211.08 -97.08Q207.12 -97.68 203.76 -97.68Q194.4 -97.68 187.56 -92.88Q180.72 -88.08 176.52 -79.32Q172.32 -70.56 170.16 -58.56V0ZM229.2 0V-125.52H259.44V0ZM244.32 -145.2Q235.2 -145.2 230.28 -149.16Q225.36 -153.12 225.36 -160.56Q225.36 -168 230.28 -171.96Q235.2 -175.92 244.32 -175.92Q253.92 -175.92 258.72 -172.08Q263.52 -168.24 263.52 -160.56Q263.52 -153.12 258.6 -149.16Q253.68 -145.2 244.32 -145.2ZM281.52 0V-125.52H306.24L305.52 -87.12H309.84Q313.2 -101.04 318.6 -110.28Q324 -119.52 331.92 -124.08Q339.84 -128.64 350.16 -128.64Q361.68 -128.64 369.12 -123.36Q376.56 -118.08 380.52 -108.84Q384.48 -99.6 385.44 -87.36H389.28Q392.4 -101.28 398.28 -110.4Q404.16 -119.52 412.68 -124.08Q421.2 -128.64 431.52 -128.64Q441.6 -128.64 449.28 -124.56Q456.96 -120.48 462.12 -112.68Q467.28 -104.88 469.8 -93.12Q472.32 -81.36 472.32 -66V0H441.84V-62.16Q441.84 -75.6 439.56 -84.48Q437.28 -93.36 432.6 -97.8Q427.92 -102.24 420.48 -102.24Q412.08 -102.24 405.84 -96.72Q399.6 -91.2 396 -81.24Q392.4 -71.28 391.68 -58.56V0H361.92V-60.72Q361.92 -74.64 359.52 -83.88Q357.12 -93.12 352.32 -97.68Q347.52 -102.24 340.08 -102.24Q331.44 -102.24 325.32 -96.48Q319.2 -90.72 315.72 -80.64Q312.24 -70.56 311.76 -58.08V0Z" transform="translate(40,319)"/>
    <g transform="translate(140,519) skewX(-14)">
      <path d="M81.36 3.12Q61.92 3.12 46.68 -5.88Q31.44 -14.88 22.68 -32.88Q13.92 -50.88 13.92 -78Q13.92 -97.68 18.72 -113.04Q23.52 -128.4 33.12 -139.2Q42.72 -150 56.52 -155.76Q70.32 -161.52 88.56 -161.52Q102.24 -161.52 113.28 -158.16Q124.32 -154.8 132.48 -148.56Q140.64 -142.32 145.56 -133.44Q150.48 -124.56 151.2 -113.04L126.24 -105.6Q125.52 -117.6 120 -125.04Q114.48 -132.48 105.96 -135.84Q97.44 -139.2 87.84 -139.2Q73.68 -139.2 63.24 -132.96Q52.8 -126.72 47.04 -113.4Q41.28 -100.08 41.28 -78.96Q41.28 -62.64 44.76 -51.24Q48.24 -39.84 54.36 -32.76Q60.48 -25.68 69 -22.44Q77.52 -19.2 87.36 -19.2Q99.36 -19.2 108 -23.52Q116.64 -27.84 121.92 -36.72Q127.2 -45.6 128.4 -59.28H94.32V-79.2H154.32V0H134.4L137.52 -42.24H133.68Q130.32 -27.12 123.72 -17.04Q117.12 -6.96 106.8 -1.92Q96.48 3.12 81.36 3.12ZM208.24 3.12Q197.92 3.12 189.76 -0.84Q181.6 -4.8 176.92 -12.72Q172.24 -20.64 172.24 -32.4Q172.24 -41.76 175.72 -48.6Q179.2 -55.44 186.28 -60.12Q193.36 -64.8 204.4 -67.8Q215.44 -70.8 230.56 -72.96Q238.96 -74.16 244.36 -75.36Q249.76 -76.56 252.28 -79.2Q254.8 -81.84 254.8 -87.12Q254.8 -95.28 249.16 -101.16Q243.52 -107.04 231.04 -107.04Q224.08 -107.04 217.24 -104.64Q210.4 -102.24 205.48 -96.84Q200.56 -91.44 198.88 -82.32L175.36 -89.76Q177.52 -98.88 182.32 -105.96Q187.12 -113.04 194.32 -117.96Q201.52 -122.88 211 -125.4Q220.48 -127.92 231.76 -127.92Q248.32 -127.92 259.12 -122.4Q269.92 -116.88 275.32 -105.48Q280.72 -94.08 280.72 -76.32V-50.88Q280.72 -42.96 281.08 -34.2Q281.44 -25.44 282.04 -16.68Q282.64 -7.92 283.6 0H259.84Q259.12 -7.2 258.52 -14.88Q257.92 -22.56 257.44 -30.48H253.84Q250.48 -21.36 244.36 -13.68Q238.24 -6 229.24 -1.44Q220.24 3.12 208.24 3.12ZM217.36 -17.04Q222.4 -17.04 227.56 -18.72Q232.72 -20.4 237.88 -23.88Q243.04 -27.36 247.48 -32.88Q251.92 -38.4 255.28 -46.08L255.04 -63.36Q253.12 -62.64 251.2 -61.92Q244.96 -60 237.76 -58.92Q230.56 -57.84 223.48 -56.52Q216.4 -55.2 210.52 -52.92Q204.64 -50.64 201.16 -46.56Q197.68 -42.48 197.68 -35.28Q197.68 -26.4 203.2 -21.72Q208.72 -17.04 217.36 -17.04ZM307.52 0V-169.2H333.2V0ZM415.68 3.12Q397.68 3.12 383.76 -4.56Q369.84 -12.24 362.04 -26.88Q354.24 -41.52 354.24 -62.88Q354.24 -84.72 362.4 -99.12Q370.56 -113.52 384.36 -120.72Q398.16 -127.92 415.44 -127.92Q433.2 -127.92 447.12 -120.48Q461.04 -113.04 469.08 -98.4Q477.12 -83.76 477.12 -61.92Q477.12 -40.32 469.08 -25.8Q461.04 -11.28 447.12 -4.08Q433.2 3.12 415.68 3.12ZM416.64 -17.52Q427.44 -17.52 435.12 -22.56Q442.8 -27.6 446.88 -37.44Q450.96 -47.28 450.96 -60.96Q450.96 -75.12 446.64 -85.32Q442.32 -95.52 434.28 -101.04Q426.24 -106.56 414.72 -106.56Q404.4 -106.56 396.6 -101.64Q388.8 -96.72 384.72 -87Q380.64 -77.28 380.64 -63.36Q380.64 -41.52 390.24 -29.52Q399.84 -17.52 416.64 -17.52ZM498.16 0V-124.8H520.72L519.52 -81.6H523.6Q525.76 -96.24 530.32 -106.56Q534.88 -116.88 542.8 -122.28Q550.72 -127.68 562.48 -127.68Q564.88 -127.68 567.76 -127.44Q570.64 -127.2 574.24 -126L573.04 -98.64Q569.44 -100.08 565.6 -100.68Q561.76 -101.28 558.64 -101.28Q549.04 -101.28 542.32 -95.88Q535.6 -90.48 531.16 -81Q526.72 -71.52 524.32 -59.04V0ZM643.76 3.12Q628.88 3.12 617.36 -1.32Q605.84 -5.76 597.92 -14.04Q590 -22.32 585.92 -33.96Q581.84 -45.6 581.84 -60.24Q581.84 -74.88 585.92 -87.24Q590 -99.6 597.56 -108.72Q605.12 -117.84 616.28 -122.88Q627.44 -127.92 641.6 -127.92Q654.8 -127.92 665.24 -123.6Q675.68 -119.28 682.88 -110.52Q690.08 -101.76 693.68 -88.68Q697.28 -75.6 696.32 -58.08L607.04 -57.36Q607.76 -38.16 616.64 -28.32Q626.24 -17.28 644 -17.28Q651.44 -17.28 656.72 -19.08Q662 -20.88 665.6 -23.88Q669.2 -26.88 671.48 -31.08Q673.76 -35.28 675.2 -39.84L698 -34.56Q695.84 -25.68 691.4 -18.84Q686.96 -12 680.24 -7.08Q673.52 -2.16 664.52 0.48Q655.52 3.12 643.76 3.12ZM608 -73.68 672.08 -74.4Q671.84 -82.08 669.44 -88.08Q665.6 -97.44 658.4 -102Q651.2 -106.56 641.84 -106.56Q631.28 -106.56 623.48 -101.16Q615.68 -95.76 611.36 -85.44Q609.2 -80.16 608 -73.68ZM722.88 2.88Q714 2.88 709.56 -0.96Q705.12 -4.8 705.12 -12.96Q705.12 -21.36 709.68 -25.2Q714.24 -29.04 722.88 -29.04Q732 -29.04 736.56 -25.2Q741.12 -21.36 741.12 -12.96Q741.12 2.88 722.88 2.88Z"/>
    </g>
  </g>
    <mask id="band-mask" maskUnits="userSpaceOnUse" x="0" y="0" width="1280" height="720">
      <rect width="1280" height="720" fill="black"/>
      <rect x="-2840" y="304" width="7000" height="92" fill="white"
            transform="rotate(-14 660 350)"/>
    </mask>
  </defs>

  <g clip-path="url(#frame)">
    <rect width="1280" height="720" fill="#23201B"/>
    <rect x="-2840" y="304" width="7000" height="92" fill="#C2EE49"
          transform="rotate(-14 660 350)"/>
    <use href="#title" fill="#F7F2E5"/>
    <g mask="url(#band-mask)">
      <use href="#title" fill="#23201B"/>
    </g>
  </g>
</svg>
