<?xml version="1.0" encoding="UTF-8"?>
<!--
  Trim Galore navbar wordmark. Transparent background. Bricolage Grotesque
  baked to <path> so it renders identically regardless of installed fonts.
  "galore" is italic via 14° skewX around the baseline.
-->
<svg xmlns="http://www.w3.org/2000/svg" viewBox="0 0 608.803 142.5"
     role="img" aria-label="Trim Galore">
  <title>Trim Galore</title>
  <g fill="#FFFFFF">
    <path d="M23.49 1.08Q15.57 1.08 11.84 -3.1Q8.1 -7.29 8.1 -16.47V-37.08H1.26L1.44 -47.25H6.21Q9 -47.25 10.35 -48.06Q11.7 -48.87 11.97 -51.03L13.14 -57.78H20.52V-47.25H32.49V-36.72H20.52V-17.01Q20.52 -13.77 22.05 -12.33Q23.58 -10.89 26.73 -10.89Q28.44 -10.89 30.02 -11.25Q31.59 -11.61 32.76 -12.42V-0.36Q29.97 0.54 27.63 0.81Q25.29 1.08 23.49 1.08ZM39.42 0V-47.25H50.13L50.22 -31.14H51.93Q52.65 -37.17 54.4 -40.95Q56.16 -44.73 59.31 -46.53Q62.46 -48.33 67.14 -48.33Q67.95 -48.33 68.89 -48.28Q69.84 -48.24 71.1 -47.97L70.56 -34.2Q69.21 -34.83 67.59 -35.1Q65.97 -35.37 64.71 -35.37Q61.2 -35.37 58.68 -33.75Q56.16 -32.13 54.58 -29.11Q53.01 -26.1 52.47 -21.78V0ZM76.23 0V-47.25H89.19V0ZM82.8 -54.36Q79.02 -54.36 76.99 -55.94Q74.97 -57.51 74.97 -60.57Q74.97 -63.72 76.99 -65.34Q79.02 -66.96 82.8 -66.96Q86.67 -66.96 88.69 -65.34Q90.72 -63.72 90.72 -60.57Q90.72 -57.6 88.69 -55.98Q86.67 -54.36 82.8 -54.36ZM98.91 0V-47.25H109.26V-33.12H110.97Q112.23 -38.34 114.3 -41.71Q116.37 -45.09 119.3 -46.8Q122.22 -48.51 126.18 -48.51Q130.41 -48.51 133.2 -46.62Q135.99 -44.73 137.52 -41.35Q139.05 -37.98 139.5 -33.12H140.94Q142.29 -38.43 144.58 -41.85Q146.88 -45.27 150.07 -46.89Q153.27 -48.51 157.14 -48.51Q161.01 -48.51 163.94 -46.98Q166.86 -45.45 168.84 -42.44Q170.82 -39.42 171.81 -34.88Q172.8 -30.33 172.8 -24.39V0H159.84V-22.77Q159.84 -27.63 159.03 -30.91Q158.22 -34.2 156.51 -35.82Q154.8 -37.44 152.1 -37.44Q149.13 -37.44 146.97 -35.41Q144.81 -33.39 143.55 -29.88Q142.29 -26.37 142.2 -21.87V0H129.51V-22.41Q129.51 -27.45 128.61 -30.73Q127.71 -34.02 126 -35.73Q124.29 -37.44 121.68 -37.44Q118.62 -37.44 116.46 -35.41Q114.3 -33.39 113.13 -29.79Q111.96 -26.19 111.87 -21.78V0Z" transform="translate(40,98.25)"/>
    <rect width="32.8125" height="94.5" fill="#C2EE49"
          transform="translate(264.216 71.25) skewX(-14) translate(-16.4062 -47.25)"/>
    <g transform="translate(310.322,98.25) skewX(-14)">
      <path d="M24.57 16.02Q17.01 16.02 12.19 14.85Q7.38 13.68 5.13 11.34Q2.88 9 2.88 5.58Q2.88 1.44 6.12 -1.21Q9.36 -3.87 15.93 -4.59V-6.39Q11.07 -6.3 8.6 -7.42Q6.12 -8.55 6.12 -10.98Q6.12 -13.5 8.6 -15.25Q11.07 -17.01 16.65 -18.36V-20.07Q11.16 -20.25 8.19 -23.49Q5.22 -26.73 5.22 -31.77Q5.22 -36.36 7.7 -39.83Q10.17 -43.29 14.98 -45.22Q19.8 -47.16 26.64 -47.16H49.23V-39.24L34.74 -41.4V-39.6Q40.14 -38.61 42.84 -36.18Q45.54 -33.75 45.54 -29.61Q45.54 -25.92 43.24 -23.04Q40.95 -20.16 36.54 -18.59Q32.13 -17.01 25.74 -17.01Q24.57 -17.01 23.22 -17.1Q21.87 -17.19 19.26 -17.55Q17.1 -16.2 15.79 -15.03Q14.49 -13.86 14.49 -12.96Q14.49 -12.06 15.61 -11.52Q16.74 -10.98 18.45 -10.8Q20.16 -10.62 21.69 -10.62H33.21Q35.01 -10.62 37.8 -10.3Q40.59 -9.99 43.38 -8.82Q46.17 -7.65 48.06 -5.17Q49.95 -2.7 49.95 1.71Q49.95 6.75 47.07 9.9Q44.19 13.05 38.52 14.54Q32.85 16.02 24.57 16.02ZM25.2 8.01Q30.96 8.01 34.47 7.33Q37.98 6.66 39.6 5.13Q41.22 3.6 41.22 1.26Q41.22 -0.9 40.14 -2.12Q39.06 -3.33 37.48 -3.83Q35.91 -4.32 34.29 -4.41Q32.67 -4.5 31.5 -4.5H20.79Q16.02 -3.69 14.13 -1.75Q12.24 0.18 12.24 2.52Q12.24 4.77 13.86 5.98Q15.48 7.2 18.4 7.6Q21.33 8.01 25.2 8.01ZM25.83 -22.77Q31.05 -22.77 33.7 -25.06Q36.36 -27.36 36.36 -31.14Q36.36 -35.19 33.66 -37.75Q30.96 -40.32 25.65 -40.32Q20.43 -40.32 17.68 -37.8Q14.94 -35.28 14.94 -31.41Q14.94 -28.8 16.2 -26.86Q17.46 -24.93 19.84 -23.85Q22.23 -22.77 25.83 -22.77ZM68.22 1.17Q64.35 1.17 61.29 -0.31Q58.23 -1.8 56.47 -4.77Q54.72 -7.74 54.72 -12.15Q54.72 -15.66 56.02 -18.23Q57.33 -20.79 59.98 -22.55Q62.64 -24.3 66.78 -25.43Q70.92 -26.55 76.59 -27.36Q79.74 -27.81 81.76 -28.26Q83.79 -28.71 84.73 -29.7Q85.68 -30.69 85.68 -32.67Q85.68 -35.73 83.56 -37.94Q81.45 -40.14 76.77 -40.14Q74.16 -40.14 71.59 -39.24Q69.03 -38.34 67.19 -36.31Q65.34 -34.29 64.71 -30.87L55.89 -33.66Q56.7 -37.08 58.5 -39.73Q60.3 -42.39 63 -44.23Q65.7 -46.08 69.25 -47.02Q72.81 -47.97 77.04 -47.97Q83.25 -47.97 87.3 -45.9Q91.35 -43.83 93.38 -39.55Q95.4 -35.28 95.4 -28.62V-19.08Q95.4 -16.11 95.53 -12.82Q95.67 -9.54 95.89 -6.25Q96.12 -2.97 96.48 0H87.57Q87.3 -2.7 87.07 -5.58Q86.85 -8.46 86.67 -11.43H85.32Q84.06 -8.01 81.77 -5.13Q79.47 -2.25 76.09 -0.54Q72.72 1.17 68.22 1.17ZM71.64 -6.39Q73.53 -6.39 75.47 -7.02Q77.4 -7.65 79.33 -8.96Q81.27 -10.26 82.94 -12.33Q84.6 -14.4 85.86 -17.28L85.77 -23.76Q85.05 -23.49 84.33 -23.22Q81.99 -22.5 79.29 -22.09Q76.59 -21.69 73.94 -21.2Q71.28 -20.7 69.07 -19.84Q66.87 -18.99 65.56 -17.46Q64.26 -15.93 64.26 -13.23Q64.26 -9.9 66.33 -8.14Q68.4 -6.39 71.64 -6.39ZM106.2 0V-63.45H115.83V0ZM147.51 1.17Q140.76 1.17 135.54 -1.71Q130.32 -4.59 127.39 -10.08Q124.47 -15.57 124.47 -23.58Q124.47 -31.77 127.53 -37.17Q130.59 -42.57 135.76 -45.27Q140.94 -47.97 147.42 -47.97Q154.08 -47.97 159.3 -45.18Q164.52 -42.39 167.53 -36.9Q170.55 -31.41 170.55 -23.22Q170.55 -15.12 167.53 -9.67Q164.52 -4.23 159.3 -1.53Q154.08 1.17 147.51 1.17ZM147.87 -6.57Q151.92 -6.57 154.8 -8.46Q157.68 -10.35 159.21 -14.04Q160.74 -17.73 160.74 -22.86Q160.74 -28.17 159.12 -31.99Q157.5 -35.82 154.48 -37.89Q151.47 -39.96 147.15 -39.96Q143.28 -39.96 140.35 -38.11Q137.43 -36.27 135.9 -32.62Q134.37 -28.98 134.37 -23.76Q134.37 -15.57 137.97 -11.07Q141.57 -6.57 147.87 -6.57ZM179.19 0V-46.8H187.65L187.2 -30.6H188.73Q189.54 -36.09 191.25 -39.96Q192.96 -43.83 195.93 -45.85Q198.9 -47.88 203.31 -47.88Q204.21 -47.88 205.29 -47.79Q206.37 -47.7 207.72 -47.25L207.27 -36.99Q205.92 -37.53 204.48 -37.75Q203.04 -37.98 201.87 -37.98Q198.27 -37.98 195.75 -35.95Q193.23 -33.93 191.56 -30.38Q189.9 -26.82 189 -22.14V0ZM234.54 1.17Q228.96 1.17 224.64 -0.5Q220.32 -2.16 217.35 -5.26Q214.38 -8.37 212.85 -12.73Q211.32 -17.1 211.32 -22.59Q211.32 -28.08 212.85 -32.72Q214.38 -37.35 217.22 -40.77Q220.05 -44.19 224.24 -46.08Q228.42 -47.97 233.73 -47.97Q238.68 -47.97 242.59 -46.35Q246.51 -44.73 249.21 -41.44Q251.91 -38.16 253.26 -33.25Q254.61 -28.35 254.25 -21.78L220.77 -21.51Q221.04 -14.31 224.37 -10.62Q227.97 -6.48 234.63 -6.48Q237.42 -6.48 239.4 -7.15Q241.38 -7.83 242.73 -8.96Q244.08 -10.08 244.94 -11.65Q245.79 -13.23 246.33 -14.94L254.88 -12.96Q254.07 -9.63 252.41 -7.06Q250.74 -4.5 248.22 -2.65Q245.7 -0.81 242.32 0.18Q238.95 1.17 234.54 1.17ZM221.13 -27.63 245.16 -27.9Q245.07 -30.78 244.17 -33.03Q242.73 -36.54 240.03 -38.25Q237.33 -39.96 233.82 -39.96Q229.86 -39.96 226.94 -37.94Q224.01 -35.91 222.39 -32.04Q221.58 -30.06 221.13 -27.63Z"/>
    </g>
  </g>
</svg>
